<?xml version="1.0" encoding="utf-8"?>
<!-- Generator: Adobe Illustrator 22.0.0, SVG Export Plug-In . SVG Version: 6.00 Build 0)  -->
<svg version="1.1" id="Layer_1" xmlns="http://www.w3.org/2000/svg" xmlns:xlink="http://www.w3.org/1999/xlink" x="0px" y="0px"
	 viewBox="0 0 425.2 425.2" style="enable-background:new 0 0 425.2 425.2;" xml:space="preserve">
<style type="text/css">
	.st0{fill:#6ABD45;}
	.st1{fill:#141414;}
	.st2{fill:url(#SVGID_1_);}
	.st3{fill:#6CBE45;}
	.st4{fill:#6DBE46;}
	.st5{fill:#6FBE46;}
</style>
<g>
	<polygon class="st0" points="360,171.4 343.7,191.8 352.9,216.3 331.1,230.7 332.2,256.8 307,263.7 300.1,288.9 274,287.8 
		259.6,309.6 235.1,300.4 214.7,316.7 194.3,300.4 169.8,309.6 155.4,287.8 129.3,288.9 122.4,263.7 97.1,256.8 98.3,230.7 
		76.5,216.3 85.7,191.8 69.4,171.4 85.7,151 76.5,126.5 98.3,112.1 97.2,86 122.4,79.1 129.3,53.9 155.4,55 169.8,33.2 194.3,42.4 
		214.7,26.1 235.1,42.4 259.6,33.2 274,55 300.1,53.9 307,79.1 332.2,86 331.1,112.1 352.9,126.5 343.7,151 	"/>
	<polygon class="st1" points="358.2,194.3 338.8,211.9 344.1,237.5 320.3,248.3 317.3,274.3 291.3,277.1 280.5,300.9 254.9,295.7 
		237.3,315 214.6,302 191.8,314.9 174.2,295.5 148.6,300.8 137.8,277 111.8,274 109,248 85.2,237.2 90.4,211.6 71.1,194 84.1,171.3 
		71.2,148.5 90.6,130.9 85.3,105.3 109.1,94.5 112.1,68.5 138.1,65.7 148.9,41.9 174.5,47.1 192.1,27.8 214.8,40.8 237.6,27.9 
		255.2,47.3 280.8,42 291.6,65.8 317.6,68.8 320.4,94.8 344.2,105.6 339,131.2 358.3,148.8 345.3,171.5 	"/>
	<g>
		<linearGradient id="SVGID_1_" gradientUnits="userSpaceOnUse" x1="96.2412" y1="171.3996" x2="333.1504" y2="171.3996">
			<stop  offset="0" style="stop-color:#8B5E3C"/>
			<stop  offset="0.2545" style="stop-color:#FBB040"/>
			<stop  offset="0.5394" style="stop-color:#F4EEC2"/>
			<stop  offset="0.8" style="stop-color:#FBB040"/>
			<stop  offset="1" style="stop-color:#8B5E3C"/>
		</linearGradient>
		<path class="st2" d="M214.7,289.9c-65.3,0-118.5-53.1-118.5-118.5c0-65.3,53.1-118.5,118.5-118.5c65.3,0,118.5,53.1,118.5,118.5
			C333.2,236.7,280,289.9,214.7,289.9z M214.7,56.3c-63.4,0-115.1,51.6-115.1,115.1c0,63.4,51.6,115.1,115.1,115.1
			c63.4,0,115.1-51.6,115.1-115.1C329.8,108,278.1,56.3,214.7,56.3z"/>
	</g>
	<g>
		<polygon class="st1" points="349.4,369.8 287.8,347.7 259.4,406.6 180.6,214.2 270.5,177.3 		"/>
		<g>
			<polygon class="st3" points="261.9,401.3 267,390.7 192.6,209.2 184.5,212.6 			"/>
			<polygon class="st0" points="343.7,367.8 332.7,363.8 258.3,182.3 266.3,179 			"/>
		</g>
		<polygon class="st1" points="81.9,369.8 143.5,347.7 171.8,406.6 250.7,214.2 160.8,177.3 		"/>
		<g>
			<polygon class="st4" points="169.3,401.3 164.2,390.7 238.6,209.2 246.7,212.6 			"/>
			<polygon class="st5" points="87.5,367.8 98.6,363.8 173,182.3 164.9,179 			"/>
		</g>
	</g>
	<path class="st1" d="M336.4,171.4c0,67.2-54.5,121.7-121.7,121.7C147.5,293.1,93,238.6,93,171.4c0-67.2,54.5-121.7,121.7-121.7
		C281.9,49.7,336.4,104.2,336.4,171.4z"/>
	<path class="st0" d="M214.7,59.8c-61.7,0-111.6,50-111.6,111.6c0,61.7,50,111.6,111.6,111.6c61.7,0,111.6-50,111.6-111.6
		C326.3,109.7,276.4,59.8,214.7,59.8z M214.7,262.1c-50.1,0-90.7-40.6-90.7-90.7c0-50.1,40.6-90.7,90.7-90.7
		c50.1,0,90.7,40.6,90.7,90.7C305.4,221.5,264.8,262.1,214.7,262.1z"/>
</g>
</svg>
