<?xml version="1.0" encoding="utf-8"?>
<!-- Generator: Adobe Illustrator 22.0.0, SVG Export Plug-In . SVG Version: 6.00 Build 0)  -->
<svg version="1.1" id="Layer_1" xmlns="http://www.w3.org/2000/svg" xmlns:xlink="http://www.w3.org/1999/xlink" x="0px" y="0px"
	 viewBox="0 0 5000 5000" style="enable-background:new 0 0 5000 5000;" xml:space="preserve">
<style type="text/css">
	.st0{fill:#01FF07;}
	.st1{fill:#CEA06E;}
	.st2{fill:#131313;}
	.st3{fill:#F7D4AC;}
	.st4{fill:#33526E;}
	.st5{fill:none;}
</style>
<path class="st0" d="M1312.9,3073.6L1312.9,3073.6c-66.2-58.8-72.3-161-13.6-227.2l190.6-214.8c58.8-66.2,161-72.3,227.2-13.6l0,0
	c66.2,58.8,72.3,161,13.6,227.2L1540.2,3060C1481.4,3126.3,1379.2,3132.4,1312.9,3073.6z"/>
<path class="st1" d="M3301.3,2335.3c-4.2,4.8-10.3,8-17.2,8.4l-605.6,37.5l-4.2,0.3l-82,5.1c-13.7,0.8-25.6-9.7-26.5-23.4l-3.2-52.1
	v-0.5v-0.4l-25-404.1c0,0,207.5,85.9,462,240.4c15.6,9.5,31.5,19.3,47.4,29.3c13.4,8.4,26.9,17,40.6,25.8l53.7,33.7L3301.3,2335.3z"
	/>
<path class="st0" d="M3980.5,2802.4c-30.4,59.7-72.2,113.5-123.3,158.4c-19.9,17.5-50.6,44.8-87.4,76
	c-18.1,15.3-37.8,31.6-58.3,48.1c-72.1,57.8-155.5,118.2-226.1,150l-137.6,28.8l-27.4,5.7L2816,3374.9l-12.9,2.7l-119.2,25
	l-205-75.6l0,0l-120.9-44.6l-22.1-33.1l-284.1-425.7l233.7-436.9l276.3-76.2l0.5-0.1l0.5-0.1l483.4-133.3l0.8-0.9l0.2-0.3
	c13.4,8.4,26.9,17,40.6,25.8l53.7,33.7l159.9,100.1l597.7,374.3C3934.7,2732,3963.2,2764.2,3980.5,2802.4z"/>
<path class="st2" d="M3963.5,2975.4c0,0-25.9,62.7-136.2,67.7c-19.5,0.9-38.8-1.3-57.5-6.2c-19-5-37.3-12.9-54.1-23.5l-1037.1-632.1
	l-115.8-70.6l-0.5-0.3l-20.2-12.3l19.8,12.5l1,0.6l111.7,70.4l962.2,606.8c33.5,21.1,60.5,57.2,74.9,96.6
	c7.8,21.2,11.9,43.3,11.4,64.5c-1.4,65.7-1.4,65.7-52.8,136.1c0,0-94.8,105.4-230.2,35.6l-92.2-57.4l-945.2-588.3l917.9,594l6.2,4
	c56.9,36.8,87.4,104,75.5,170.7c-4.2,23.4-13.5,47.5-30.8,69.8c0,0-58.6,137.1-250.3,48.9l-305-187.9l-671.8-414l658.9,416.7
	l92,58.2c43.4,28.1,70.1,76,70.7,127.7c0.6,52.4-5.1,95.5-56.8,142.2c0,0-108.3,137.4-277.6,7.4l-210.8-143.8l-273.6-186.6l-0.5-0.3
	l-269.7-184l-2.1-1.4l-264.1-180.2l-20-13.7l-130.1-88.7l-143.5-88.1l-59.1-36.3c0,0-78.8-43.8-92.5-220.6c0,0-11.2-74.4,2.3-98.2
	l-62.7,0.6l-56.1,0.5l290.6-831.4l78-10.2l104.1-13.6c0,0,3.8-3.9,10.9-10.7c130.3-124.6,301.9-196.9,482.1-203.7
	c135.7-5.2,320.3,2,426.6,65.9c-40.2,32.6-83,67.2-125.7,101.6c0,0-228.8,147.9-247.1,233.5c0,0-9.5,15.3-14.4,48.4
	c-24.5,166.5,157.7,284.5,301,196.2c51.6-31.8,112.1-77.5,182.7-142.3c0,0,207.5,85.9,462,240.4l47.2,29.5l40.8,25.6l53.7,33.7
	l159.9,100.1l597.7,374.3c35.7,22.4,64.2,54.6,81.5,92.8c2.3,5,4.4,10.1,6.2,15.3C4003.6,2864.1,4007.6,2910.5,3963.5,2975.4z"/>
<path class="st0" d="M4033.2,2544.5c0,0,6.9,32.3-1.4,94.2c-7.8,57.6-25.3,112.8-51.3,163.7c-17.3-38.1-45.8-70.4-81.5-92.8
	l-597.7-374.3l-159.9-100.1l-53.7-33.7c-13.6-8.8-27.1-17.4-40.6-25.8c-16-10-31.8-19.8-47.4-29.3c-254.6-154.6-462-240.4-462-240.4
	c-70.6,64.8-131.1,110.5-182.7,142.3c-143.3,88.3-325.4-29.6-301-196.2c4.9-33.1,14.4-48.4,14.4-48.4
	c18.2-85.6,247.1-233.5,247.1-233.5c42.7-34.4,85.5-69,125.7-101.6c19.9-16.1,39.2-31.7,57.5-46.6c111.8-90.6,249-144.2,392.7-153.1
	c0.1,0,0.2,0,0.3,0c0.5,0,1.1,0,1.6,0c240.4,30.7,415.2,88.8,536.1,144.9c89.3,41.4,165,105.6,220.2,185l53.1,11.7l392.4,893.9
	L4033.2,2544.5z"/>
<path class="st3" d="M3141.4,2235.2c-2.6-0.6-3.9-0.9-3.9-0.9c-16.7-11.2-33.3-22.1-49.8-32.7L3141.4,2235.2z"/>
<path class="st0" d="M1640.4,3222.4L1640.4,3222.4c-66.2-58.8-72.3-161-13.6-227.2l104.8-118.1c58.8-66.2,161-72.3,227.2-13.6l0,0
	c66.2,58.8,72.3,161,13.6,227.2l-104.8,118.1C1808.9,3275,1706.7,3281.1,1640.4,3222.4z"/>
<path class="st0" d="M1876.9,3440.9L1876.9,3440.9c-67.3-59.7-73.5-163.5-13.8-230.8l106.4-120c59.7-67.3,163.5-73.5,230.8-13.8l0,0
	c67.3,59.7,73.5,163.5,13.8,230.8l-106.4,120C2048,3494.4,1944.2,3500.6,1876.9,3440.9z"/>
<path class="st0" d="M2122.7,3657.3L2122.7,3657.3c-67.7-60.1-73.9-164.6-13.9-232.3l107.1-120.7c60.1-67.7,164.6-73.9,232.3-13.9
	l0,0c67.7,60.1,73.9,164.6,13.9,232.3L2355,3643.5C2294.9,3711.2,2190.4,3717.4,2122.7,3657.3z"/>
<polygon class="st4" points="867.1,1121.9 629.5,1761.2 356.4,2496.5 355.4,2499.1 "/>
<line class="st5" x1="629.5" y1="1761.2" x2="356.4" y2="2496.5"/>
<path class="st2" d="M809,1172.9L344.8,2422.5c-30,80.7,11.5,171.2,92.2,201.2l390.8,145.2c80.7,30,171.2-11.5,201.2-92.2
	l464.3-1249.6c30-80.7-11.5-171.2-92.2-201.2l-390.8-145.2C929.5,1050.8,839,1092.2,809,1172.9z"/>
<path class="st0" d="M4749.6,2569.4L4367.8,2737c-78.8,34.6-171.6-1.6-206.2-80.4l-66.7-152.1l-392.4-893.9l-76.7-174.7
	c-34.6-78.8,1.6-171.6,80.4-206.2l381.8-167.6c78.8-34.6,171.6,1.6,206.2,80.4L4830,2363.2
	C4864.6,2442.1,4828.4,2534.8,4749.6,2569.4z"/>
</svg>
