<?xml version="1.0" encoding="utf-8"?>
<!-- Generator: Adobe Illustrator 22.0.0, SVG Export Plug-In . SVG Version: 6.00 Build 0)  -->
<svg version="1.1" id="Layer_1" xmlns="http://www.w3.org/2000/svg" xmlns:xlink="http://www.w3.org/1999/xlink" x="0px" y="0px"
	 viewBox="0 0 100 100" style="enable-background:new 0 0 100 100;" xml:space="preserve">
<style type="text/css">
	.st0{fill:#5F6E7B;}
</style>
<path class="st0" d="M77.7,34.7h-5.5v-6.8c0-12.6-10.3-22.9-22.9-22.9c-12.6,0-22.9,10.3-22.9,22.9v6.8H21c-4.3,0-7.8,3.5-7.8,7.8
	V87c0,4.3,3.5,7.9,7.8,7.9h56.7c4.3,0,7.9-3.5,7.9-7.9V42.5C85.6,38.2,82,34.7,77.7,34.7z M36.8,27.8c0-6.9,5.6-12.5,12.5-12.5
	c6.9,0,12.5,5.6,12.5,12.5v6.8H36.8V27.8z M53.6,74.2v11.4c0,0.5-0.4,0.8-0.9,0.8h-5.4c-0.4,0-0.8-0.4-0.8-0.8V74.2
	c-3.7-1.4-6.4-5-6.4-9.3c0-5.5,4.5-10,10-10c5.5,0,10,4.5,10,10C60,69.2,57.3,72.8,53.6,74.2z"/>
</svg>
