<?xml version="1.0" encoding="utf-8"?>
<!-- Generator: Adobe Illustrator 16.0.3, SVG Export Plug-In . SVG Version: 6.00 Build 0)  -->
<!DOCTYPE svg PUBLIC "-//W3C//DTD SVG 1.1//EN" "http://www.w3.org/Graphics/SVG/1.1/DTD/svg11.dtd">
<svg version="1.1" id="object" xmlns="http://www.w3.org/2000/svg" xmlns:xlink="http://www.w3.org/1999/xlink" x="0px" y="0px"
	 width="208px" height="208px" viewBox="308.555 200.677 208 208" enable-background="new 308.555 200.677 208 208"
	 xml:space="preserve">
<g>
	<path fill="#131313" d="M459.114,386.703h-95.056c-3.627,0-6.579-2.952-6.579-6.579V245.503c0-3.627,2.951-6.579,6.579-6.579
		h95.056c3.628,0,6.579,2.951,6.579,6.579v134.621C465.693,383.751,462.742,386.703,459.114,386.703z"/>
	<path fill="#FFFFFF" d="M456.87,379.018h-90.567c-0.953,0-1.722-0.769-1.722-1.722V252.328c0-0.953,0.769-1.721,1.722-1.721h90.567
		c0.953,0,1.722,0.769,1.722,1.721v124.968C458.592,378.249,457.823,379.018,456.87,379.018z"/>
	<g>
		<path fill="#131313" d="M392.25,294.261h-22.074v-22.042h22.074V294.261z M370.976,293.492h20.474v-20.475h-20.474V293.492z"/>
	</g>
	<g>
		<path fill="#131313" d="M392.25,327.585h-22.074v-22.072h22.074V327.585z M370.976,326.786h20.474v-20.475h-20.474V326.786z"/>
	</g>
	<g>
		<path fill="#131313" d="M392.25,360.91h-22.074v-22.073h22.074V360.91z M370.976,360.111h20.474v-20.475h-20.474V360.111z"/>
	</g>
	<g>
		<polyline fill="#131313" points="449.461,274.032 449.461,276.276 403.993,276.276 403.993,274.032 		"/>
		<rect x="403.993" y="280.98" fill="#131313" width="45.438" height="2.275"/>
		<rect x="403.993" y="287.928" fill="#131313" width="45.438" height="2.275"/>
	</g>
	<g>
		<rect x="403.993" y="308.063" fill="#131313" width="45.438" height="2.275"/>
		<rect x="403.993" y="315.043" fill="#131313" width="45.438" height="2.274"/>
		<rect x="403.993" y="321.99" fill="#131313" width="45.438" height="2.274"/>
	</g>
	<g>
		<rect x="403.993" y="340.066" fill="#131313" width="45.438" height="2.275"/>
		<rect x="403.993" y="347.015" fill="#131313" width="45.438" height="2.275"/>
		<rect x="403.993" y="353.993" fill="#131313" width="45.438" height="2.275"/>
	</g>
	<g>
		<g>
			<g>
				<polygon fill="#01FF07" points="372.605,278.459 375.464,276.553 379.707,280.857 395.662,269.144 396.861,269.482 
					379.584,283.962 				"/>
			</g>
		</g>
	</g>
	<g>
		<g>
			<g>
				<polygon fill="#01FF07" points="374.235,315.872 377.063,313.966 381.336,318.301 397.261,306.558 398.459,306.896 
					381.213,321.375 				"/>
			</g>
		</g>
	</g>
	<g>
		<g>
			<g>
				<polygon fill="#01FF07" points="374.235,346.584 377.063,344.679 381.336,348.982 397.261,337.27 398.459,337.576 
					381.213,352.087 				"/>
			</g>
		</g>
	</g>
	<g>
		<path fill="#01FF07" d="M441.438,235.266h-16.078v-2.306c0-7.009-5.688-12.697-12.697-12.697h-0.245
			c-7.01,0-12.697,5.688-12.697,12.697v2.306h-16.078c-0.83,0-1.506,0.676-1.506,1.506v16.232c0,0.83,0.677,1.506,1.506,1.506
			h57.826c0.831,0,1.507-0.676,1.507-1.506v-16.232C442.944,235.942,442.268,235.266,441.438,235.266z M412.54,233.759
			c-2.337,0-4.243-1.906-4.243-4.242s1.906-4.243,4.243-4.243c2.336,0,4.242,1.906,4.242,4.243S414.876,233.759,412.54,233.759z"/>
	</g>
</g>
</svg>
